<?xml version="1.0" standalone="no"?>
<!DOCTYPE svg PUBLIC "-//W3C//DTD SVG 20010904//EN"
 "http://www.w3.org/TR/2001/REC-SVG-20010904/DTD/svg10.dtd">
<svg version="1.0" xmlns="http://www.w3.org/2000/svg"
 width="1300.000000pt" height="1183.000000pt" viewBox="0 0 1300.000000 1183.000000"
 preserveAspectRatio="xMidYMid meet">

<g transform="translate(0.000000,1183.000000) scale(0.100000,-0.100000)"
fill="#000000" stroke="none">
<path d="M6245 10200 c-137 -25 -409 -125 -640 -234 -60 -29 -130 -62 -155
-74 -320 -152 -1068 -598 -1311 -782 -46 -35 -108 -89 -138 -120 -201 -208
-447 -722 -606 -1270 -63 -215 -59 -351 14 -460 59 -89 355 -373 466 -446 28
-19 83 -45 124 -59 71 -25 249 -58 264 -48 10 6 10 5 -13 -55 -53 -138 2 -366
146 -607 35 -60 80 -150 100 -201 64 -165 156 -237 308 -241 43 -1 80 -4 82
-6 6 -6 62 -345 84 -514 12 -87 25 -175 30 -196 7 -33 4 -47 -26 -103 -19 -36
-34 -75 -34 -88 0 -19 -8 -24 -62 -35 -174 -34 -370 -116 -448 -187 -68 -61
-120 -194 -120 -304 0 -32 -4 -39 -26 -44 -49 -13 -152 -87 -222 -160 -54 -57
-83 -99 -124 -183 -30 -59 -59 -122 -65 -138 -9 -26 -31 -40 -179 -110 -439
-207 -848 -419 -931 -482 -36 -28 -114 -127 -180 -229 -126 -197 -193 -416
-193 -637 0 -96 1 -102 28 -131 18 -20 19 -24 4 -12 l-22 19 0 -31 c0 -17 4
-34 10 -37 14 -9 50 54 208 365 80 157 159 305 176 330 148 219 474 417 1076
651 169 67 175 68 195 51 11 -10 56 -50 100 -89 112 -99 222 -165 338 -202
293 -94 930 -189 1507 -224 l195 -12 -90 -43 c-197 -95 -390 -254 -444 -365
-17 -34 -33 -78 -36 -97 -6 -34 -5 -37 37 -57 113 -57 303 -76 487 -49 146 22
251 55 376 119 82 43 117 68 191 142 104 102 153 177 134 200 -7 8 -20 39 -29
69 l-17 55 -79 -65 c-135 -110 -333 -190 -452 -182 l-47 3 58 47 c117 92 343
188 478 204 l53 6 36 -49 c78 -105 158 -131 287 -95 145 41 182 76 228 215 14
45 30 86 34 90 4 5 13 -21 20 -58 12 -64 10 -131 -5 -167 -9 -22 46 -47 169
-81 66 -17 108 -21 231 -21 129 0 165 4 258 27 147 37 242 82 311 149 73 71
74 94 7 159 -134 129 -463 221 -734 206 l-110 -7 79 59 c270 201 513 465 637
691 37 69 97 229 97 261 0 12 7 19 18 19 31 0 413 -135 481 -170 92 -46 112
-63 210 -175 48 -55 164 -179 258 -275 94 -96 179 -193 191 -215 17 -35 150
-167 362 -361 141 -130 249 -209 345 -256 36 -18 47 -32 84 -107 45 -90 148
-251 200 -311 l30 -35 -21 55 c-11 30 -44 119 -73 197 l-53 143 42 24 c46 28
147 124 217 206 211 249 385 717 429 1149 5 57 10 167 10 246 l0 142 -142 95
c-119 79 -207 135 -319 203 -9 6 -50 33 -90 61 -137 95 -170 102 -278 59 -35
-13 -68 -22 -74 -18 -6 4 -46 35 -89 70 -43 35 -84 63 -92 63 -30 0 -45 33
-36 80 5 25 12 104 16 177 6 106 4 136 -7 150 -9 11 -10 14 -1 9 16 -10 16 13
-3 111 -27 141 -24 165 89 633 57 239 69 347 63 565 -6 205 -18 295 -74 553
-9 37 -57 55 -129 49 -102 -8 -173 -59 -202 -146 -17 -48 -15 -186 4 -303 23
-146 8 -155 -31 -18 -80 282 -182 515 -357 824 -87 152 -109 170 -199 163 -60
-5 -122 -32 -153 -66 -11 -12 -22 -21 -26 -21 -3 0 -26 39 -50 86 l-44 86 -77
-4 c-104 -6 -161 -39 -202 -118 -26 -49 -28 -63 -25 -130 3 -70 8 -86 76 -225
61 -126 77 -172 102 -285 40 -178 52 -216 86 -277 16 -28 26 -54 23 -57 -3 -3
-21 -1 -40 4 -63 18 -83 12 -205 -68 -65 -43 -145 -93 -178 -112 -32 -19 -86
-62 -120 -95 -42 -41 -95 -78 -164 -114 -132 -70 -185 -119 -206 -189 -8 -29
-25 -67 -37 -84 -32 -44 -35 -110 -10 -201 25 -93 26 -150 5 -225 -21 -70 -13
-139 21 -198 24 -42 92 -106 205 -196 30 -24 83 -80 117 -123 34 -44 83 -102
109 -129 25 -27 54 -69 65 -93 86 -202 297 -395 589 -539 83 -41 118 -65 167
-115 58 -60 181 -208 303 -362 l53 -69 -18 -116 c-9 -65 -19 -123 -21 -131 -2
-7 -34 31 -71 85 -137 203 -219 296 -393 444 -151 129 -260 169 -558 204
l-124 15 -38 43 c-21 24 -62 57 -91 73 -46 26 -66 30 -135 31 -73 2 -88 6
-175 47 -97 47 -239 86 -386 108 -46 6 -83 15 -83 19 0 4 14 26 31 50 46 64
124 220 153 308 38 112 62 252 81 452 8 96 20 222 25 280 36 386 34 451 -24
635 -100 320 -112 406 -82 566 22 117 20 225 -6 366 -12 65 -21 146 -20 179 1
40 -14 138 -43 280 -38 188 -43 220 -30 229 8 6 43 26 77 45 86 47 234 196
273 275 41 84 45 156 12 221 -29 57 -88 134 -182 239 -37 41 -85 97 -107 125
l-39 49 40 128 c82 261 113 423 97 507 -10 55 -56 100 -134 131 -37 15 -71 28
-77 29 -5 1 -20 7 -32 14 -97 54 -530 209 -703 252 -192 49 -400 69 -505 50z
m250 -170 c232 -34 641 -167 928 -303 l108 -51 -6 -61 c-10 -90 -53 -266 -96
-392 -22 -61 -39 -124 -39 -140 0 -40 42 -120 89 -169 59 -61 180 -212 193
-239 15 -33 -6 -62 -86 -120 -50 -35 -68 -55 -80 -88 -9 -23 -25 -68 -37 -99
-11 -32 -24 -58 -28 -58 -4 0 -17 33 -30 72 -73 235 -185 368 -308 368 -23 0
-31 -14 -13 -25 18 -11 119 -212 164 -325 24 -63 60 -165 78 -227 19 -61 41
-119 49 -129 12 -15 12 -16 0 -9 -11 6 -13 4 -9 -7 16 -40 51 -218 45 -224 -4
-4 -85 7 -180 24 -338 63 -452 71 -687 48 -91 -8 -221 -20 -290 -26 -587 -50
-854 -113 -1069 -253 -161 -105 -226 -160 -525 -439 -33 -32 -63 -58 -66 -58
-6 1 -122 356 -146 450 -25 94 -25 314 0 395 23 77 48 126 89 172 21 24 26 34
14 30 -9 -3 -77 -23 -150 -42 -217 -59 -277 -96 -329 -207 -31 -64 -52 -137
-43 -146 13 -14 85 38 168 123 87 89 88 89 82 54 -4 -23 -1 -49 9 -74 21 -49
20 -95 -2 -121 -9 -11 -48 -46 -87 -76 -89 -71 -117 -101 -149 -162 -58 -109
-18 -216 86 -232 l36 -6 11 68 c17 97 63 194 92 194 4 0 20 -39 34 -87 14 -49
42 -136 62 -195 l36 -107 -16 -82 c-10 -53 -23 -90 -36 -103 l-21 -20 -127 32
c-86 21 -153 32 -203 32 -41 1 -84 6 -96 13 -43 26 -252 220 -314 292 -103
121 -107 139 -60 321 91 352 308 872 465 1114 99 152 195 233 550 462 336 217
1003 578 1275 691 343 141 484 173 665 147z m-935 -165 c13 -14 21 -25 18 -25
-2 0 -15 11 -28 25 -13 14 -21 25 -18 25 2 0 15 -11 28 -25z m1850 -48 c0 -2
-10 -12 -22 -23 l-23 -19 19 23 c18 21 26 27 26 19z m1380 -1987 c10 -10 31
-42 45 -70 39 -77 121 -214 200 -335 105 -159 133 -220 161 -347 13 -62 33
-140 45 -173 23 -67 27 -182 9 -274 -11 -59 -14 -180 -4 -205 7 -18 36 -21 65
-6 17 9 19 22 19 98 0 48 5 136 12 195 8 81 9 126 0 180 -16 100 -107 375
-187 562 -68 160 -84 228 -71 299 4 21 15 40 27 47 31 16 56 -13 158 -185 107
-182 119 -205 177 -348 25 -62 73 -175 105 -252 66 -153 88 -233 89 -316 0
-30 7 -91 16 -135 29 -153 29 -183 0 -259 -24 -64 -35 -136 -19 -136 3 0 22
12 41 26 25 19 50 59 88 138 48 100 54 118 54 177 0 37 7 102 16 145 12 58 14
95 8 144 -14 107 -8 320 10 381 15 54 49 90 67 72 8 -8 30 -99 74 -303 16 -72
12 -393 -6 -550 -14 -120 -83 -468 -113 -574 -29 -100 -32 -164 -12 -263 33
-162 29 -263 -20 -477 -25 -109 -27 -140 -9 -142 6 0 36 -6 67 -13 60 -13 76
-24 228 -149 93 -76 95 -79 93 -118 -2 -21 -12 -68 -23 -104 -16 -54 -34 -82
-106 -165 -98 -115 -320 -341 -348 -357 -17 -9 -39 10 -178 155 -87 91 -180
181 -208 201 -27 20 -71 63 -97 97 -50 64 -35 55 -303 182 -79 37 -110 59
-181 128 -48 46 -103 105 -123 130 -36 45 -122 219 -145 292 -14 40 -22 45
-41 22 -7 -8 -16 -15 -20 -15 -5 0 -37 37 -73 83 -82 105 -113 135 -217 212
-109 81 -150 136 -157 213 -4 43 0 70 16 110 32 80 35 144 12 237 -11 44 -17
82 -15 84 2 3 28 -3 58 -12 29 -9 69 -17 88 -17 l35 0 63 -134 c36 -77 60
-142 57 -151 -4 -8 -25 -42 -47 -75 -22 -32 -40 -64 -40 -69 0 -25 49 -4 97
42 l33 31 69 -67 c63 -61 73 -67 111 -67 l43 0 -6 -65 c-6 -61 -5 -64 13 -53
10 7 29 29 42 50 44 73 89 128 133 161 77 59 113 94 139 136 70 110 28 291
-105 454 -32 39 -59 75 -59 78 0 3 11 20 25 39 14 19 25 44 25 57 0 21 -9 16
-80 -45 -43 -38 -108 -84 -142 -102 -35 -18 -101 -54 -148 -81 -105 -59 -154
-74 -214 -65 -48 8 -116 59 -116 88 0 26 67 83 154 132 47 26 121 80 165 119
88 80 296 207 339 207 33 0 119 -53 151 -92 28 -35 71 -172 71 -228 0 -26 -9
-48 -30 -75 -16 -21 -30 -46 -30 -57 0 -18 1 -18 28 -1 54 33 102 88 113 126
9 33 6 53 -17 131 -34 116 -43 165 -44 246 0 78 -17 142 -59 235 -18 39 -48
111 -66 160 -18 50 -44 115 -58 145 -13 30 -39 100 -58 155 -30 87 -34 113
-34 200 0 134 24 176 75 125z m-1904 -81 c188 -18 494 -87 526 -118 10 -9 53
-270 46 -277 -4 -3 -25 8 -49 25 -54 40 -107 41 -220 5 -63 -20 -93 -24 -133
-20 -121 15 -121 15 -124 -22 -5 -48 19 -78 77 -97 56 -18 83 -14 229 40 78
28 96 28 185 -3 35 -12 49 -23 54 -40 3 -13 2 -88 -3 -166 -14 -243 -4 -323
78 -596 l43 -145 -1 -170 c0 -184 -25 -546 -50 -715 -37 -251 -177 -555 -344
-749 -39 -44 -67 -81 -62 -81 4 0 13 5 20 12 6 6 14 9 17 6 3 -3 -9 -14 -27
-25 -31 -18 -37 -33 -96 -209 -34 -104 -71 -224 -82 -266 -21 -86 -50 -267
-50 -318 0 -17 -4 -30 -9 -28 -5 2 -51 25 -102 51 -52 26 -170 82 -264 123
-93 42 -218 98 -276 125 -59 26 -191 77 -295 113 -221 75 -580 217 -643 253
-58 33 -83 63 -125 144 -26 51 -35 85 -40 145 -10 112 -63 466 -86 579 -40
193 -95 377 -141 468 -25 47 -52 49 -75 5 -21 -42 -52 -67 -84 -68 -55 0 -150
108 -171 196 -15 62 -22 76 -102 202 -82 129 -126 248 -133 357 -5 70 -3 85
18 125 15 29 36 52 60 65 33 17 42 18 84 7 66 -18 96 -42 181 -149 83 -105
126 -134 168 -115 34 16 33 32 -16 258 -69 317 -51 393 144 617 59 67 86 87
239 181 267 163 593 237 1178 266 118 6 222 13 230 14 33 8 122 5 226 -5z
m1806 -1489 c72 -32 79 -42 102 -179 15 -83 15 -84 -9 -121 -39 -61 -176 -210
-193 -210 -9 0 -46 30 -82 68 -58 60 -67 74 -83 137 -9 39 -29 94 -42 124 -14
30 -24 55 -23 57 5 4 273 142 279 143 4 1 26 -8 51 -19z m1269 -777 c13 -16
12 -17 -3 -4 -10 7 -18 15 -18 17 0 8 8 3 21 -13z m-51 -476 c0 -2 -12 -14
-27 -28 l-28 -24 24 28 c23 25 31 32 31 24z m710 -327 c118 -50 220 -93 226
-94 7 -1 18 -7 25 -13 8 -6 53 -28 101 -51 l86 -40 -5 -41 c-5 -35 -2 -47 18
-69 l24 -27 -27 24 c-16 14 -28 20 -28 13 0 -33 -93 -535 -107 -577 -15 -47
-35 -93 -96 -226 -99 -214 -259 -429 -401 -538 l-54 -42 -199 94 c-168 79
-211 103 -274 158 -41 35 -114 94 -162 132 -48 37 -87 74 -87 82 0 8 13 21 30
30 49 26 177 142 272 249 157 177 227 296 287 491 29 97 43 152 96 400 31 145
32 148 48 142 6 -3 109 -46 227 -97z m150 -5 c13 -14 21 -25 18 -25 -2 0 -15
11 -28 25 -13 14 -21 25 -18 25 2 0 15 -11 28 -25z m-3560 -26 c0 -14 -17 -10
-23 5 -4 10 -1 13 9 9 7 -3 14 -9 14 -14z m45 -49 c10 -11 16 -20 13 -20 -3 0
-13 9 -23 20 -10 11 -16 20 -13 20 3 0 13 -9 23 -20z m92 -185 c14 -200 8
-393 -16 -480 -25 -95 -109 -267 -187 -385 -101 -153 -94 -163 -94 126 0 188
4 264 15 306 27 103 234 503 268 517 4 1 0 13 -10 25 -15 18 -15 19 0 6 13
-12 19 -40 24 -115z m68 25 c10 -11 16 -20 13 -20 -3 0 -13 9 -23 20 -10 11
-16 20 -13 20 3 0 13 -9 23 -20z m80 -80 c10 -11 16 -20 13 -20 -3 0 -13 9
-23 20 -10 11 -16 20 -13 20 3 0 13 -9 23 -20z m-2150 -112 c94 -33 310 -106
480 -163 349 -116 426 -145 561 -212 125 -62 192 -117 256 -208 55 -78 173
-293 166 -301 -17 -17 -762 347 -1013 495 -230 136 -675 437 -675 457 0 8 53
-8 225 -68z m2216 45 c13 -16 12 -17 -3 -4 -10 7 -18 15 -18 17 0 8 8 3 21
-13z m374 -100 c-16 -148 -65 -286 -146 -404 -40 -60 -249 -281 -249 -265 0 5
22 45 49 90 66 111 173 310 265 494 42 83 79 152 82 152 3 0 2 -30 -1 -67z
m1805 -398 c29 -30 32 -36 20 -52 -28 -37 -84 -93 -93 -93 -6 0 -7 22 -3 53 7
65 24 127 35 127 4 0 22 -16 41 -35z m-4692 -106 c75 -34 254 -114 397 -179
143 -64 350 -157 460 -205 197 -87 245 -112 195 -101 -507 110 -851 256 -1210
516 -49 36 -91 70 -94 76 -2 6 22 -1 55 -17 33 -16 121 -57 197 -90z m2795
-629 c60 -9 142 -34 232 -70 l30 -12 -25 -10 c-15 -6 -81 -8 -160 -5 -132 5
-277 31 -385 70 l-40 15 30 7 c17 4 35 8 40 10 22 8 215 4 278 -5z m-2128
-640 c10 -11 16 -20 13 -20 -3 0 -13 9 -23 20 -10 11 -16 20 -13 20 3 0 13 -9
23 -20z m80 -80 c10 -11 16 -20 13 -20 -3 0 -13 9 -23 20 -10 11 -16 20 -13
20 3 0 13 -9 23 -20z"/>
<path d="M6523 9383 c-13 -2 -23 -9 -23 -15 0 -5 40 -49 89 -96 74 -73 290
-316 367 -415 12 -15 24 -27 27 -27 10 0 -5 128 -24 200 -21 79 -72 192 -95
211 -11 9 -18 8 -31 -2 -16 -12 -16 -12 0 7 18 21 17 22 -24 58 -66 56 -124
80 -199 82 -36 1 -75 0 -87 -3z m247 -206 c0 -2 -10 -12 -22 -23 l-23 -19 19
23 c18 21 26 27 26 19z"/>
<path d="M7050 9316 c0 -2 6 -62 14 -133 8 -70 18 -172 22 -225 3 -54 10 -98
15 -98 18 0 60 91 75 161 30 143 -8 254 -98 288 -16 6 -28 9 -28 7z"/>
<path d="M6180 9121 c0 -5 42 -46 93 -93 184 -169 175 -162 195 -147 15 13 16
12 4 -3 -11 -14 -10 -19 10 -32 12 -9 26 -16 30 -16 18 0 -37 109 -75 150 -23
24 -31 36 -17 25 16 -12 12 -6 -9 18 -36 39 -53 50 -30 20 7 -10 0 -6 -16 9
-17 15 -46 34 -67 42 -47 20 -118 36 -118 27z"/>
<path d="M5742 9099 c-65 -8 -204 -44 -230 -58 -11 -6 2 -12 44 -20 354 -70
570 -128 726 -195 l38 -16 -12 27 c-87 203 -291 298 -566 262z"/>
<path d="M5215 8799 c-28 -3 -66 -14 -85 -24 l-34 -18 29 -24 c17 -13 54 -35
83 -49 59 -28 289 -91 298 -81 4 3 1 29 -6 56 -25 105 -137 160 -285 140z"/>
<path d="M4692 8599 c13 -39 172 -103 286 -115 l57 -5 -46 43 c-55 52 -121 77
-228 85 -61 5 -73 4 -69 -8z"/>
<path d="M4525 8499 c-22 -4 -53 -12 -68 -18 -54 -21 -171 -94 -215 -135 -43
-40 -44 -41 -21 -47 75 -21 209 -5 391 47 50 15 125 32 166 38 l76 12 -52 33
c-95 61 -196 86 -277 70z"/>
<path d="M6170 8119 c-150 -8 -333 -33 -450 -60 -47 -11 -96 -22 -109 -25
-131 -28 -381 -133 -503 -211 -71 -45 -237 -167 -237 -174 -1 -4 54 23 122 60
164 89 323 163 432 200 50 18 97 34 105 38 19 8 10 5 195 52 153 39 522 111
568 111 12 0 28 4 36 9 15 10 20 10 -159 0z"/>
<path d="M9218 6303 c-34 -39 -53 -113 -29 -113 12 0 22 30 14 42 -3 6 -1 8 5
5 6 -4 16 11 25 38 16 47 11 57 -15 28z"/>
<path d="M9527 6143 c-8 -10 -18 -31 -22 -48 l-6 -30 26 30 c38 44 49 65 32
65 -8 0 -21 -8 -30 -17z"/>
<path d="M9083 5741 c18 -44 33 -78 35 -76 2 2 -6 34 -18 70 -12 36 -20 69
-17 72 14 13 331 -45 367 -67 12 -8 -1 -25 -66 -87 -44 -43 -101 -103 -125
-133 -60 -74 -92 -129 -38 -65 24 28 93 101 155 164 119 120 112 116 181 95
10 -3 6 2 -9 11 -86 49 -291 95 -428 95 l-68 0 31 -79z"/>
<path d="M9026 5148 c-37 -90 -30 -232 14 -323 l20 -40 -6 40 c-3 22 -6 113
-6 203 1 89 0 162 -2 162 -2 0 -11 -19 -20 -42z"/>
<path d="M9679 4814 c-44 -47 -135 -109 -213 -145 -36 -17 -49 -26 -31 -23 56
12 150 46 166 60 8 8 20 14 25 14 23 0 104 113 92 126 -3 2 -20 -12 -39 -32z
m-9 -48 c0 -2 -8 -10 -17 -17 -16 -13 -17 -12 -4 4 13 16 21 21 21 13z"/>
<path d="M5825 7394 c-59 -14 -145 -50 -183 -76 -74 -51 -152 -138 -167 -186
-6 -22 3 -19 102 33 238 126 217 118 291 117 45 -1 112 -15 206 -42 165 -48
230 -57 280 -40 40 13 61 48 51 81 -7 21 -22 25 -111 33 -33 3 -112 22 -175
42 -110 35 -237 52 -294 38z"/>
<path d="M6787 7088 c-42 -91 -51 -130 -50 -218 0 -63 8 -107 28 -170 15 -47
40 -139 56 -204 15 -66 37 -141 49 -167 28 -66 26 -106 -10 -162 -16 -26 -27
-47 -24 -47 12 0 94 62 109 82 19 28 19 98 0 163 -8 28 -44 138 -81 245 -63
185 -67 201 -71 305 -3 78 0 126 10 165 9 30 14 56 12 58 -2 2 -14 -21 -28
-50z"/>
<path d="M5841 7040 c-44 -9 -135 -49 -128 -56 2 -2 37 3 78 12 80 17 167 13
247 -11 44 -14 44 -14 25 7 -41 46 -134 66 -222 48z"/>
<path d="M7104 7026 c-50 -23 -90 -58 -48 -42 54 21 142 37 185 34 52 -3 62 4
30 22 -34 18 -113 11 -167 -14z"/>
<path d="M5829 6946 c-71 -19 -189 -100 -189 -130 0 -26 50 -19 100 14 25 16
48 30 53 30 4 0 7 -13 7 -29 0 -16 4 -41 10 -55 8 -23 7 -25 -23 -28 l-32 -4
40 -18 c53 -25 153 -32 210 -16 57 16 43 30 -30 30 -81 0 -95 7 -95 46 0 40
15 49 65 40 29 -6 35 -11 35 -31 0 -47 32 -24 47 34 l9 33 49 -44 c58 -52 96
-65 119 -42 24 24 19 34 -15 34 -24 0 -44 11 -81 46 -85 79 -191 114 -279 90z"/>
<path d="M7105 6931 c-65 -17 -105 -41 -127 -75 -14 -22 -32 -36 -48 -38 -36
-4 -34 -40 4 -53 25 -8 31 -7 44 13 15 23 32 29 32 11 0 -6 9 -24 21 -40 l20
-29 -20 0 c-12 0 -21 -4 -21 -10 0 -13 124 -13 170 0 20 5 45 17 55 26 19 14
15 15 -52 9 -39 -3 -73 -2 -76 2 -3 5 -8 24 -12 44 -6 32 -4 37 15 42 14 4 28
-1 41 -14 36 -36 50 -17 34 44 -6 23 -4 27 13 27 11 0 40 -15 64 -33 56 -43
72 -48 94 -33 25 19 13 37 -49 74 -60 36 -142 49 -202 33z"/>
<path d="M7155 6645 c-5 -2 -28 -6 -50 -10 -38 -7 -38 -8 -16 -16 30 -12 104
-2 128 17 16 12 15 13 -17 13 -19 0 -39 -2 -45 -4z"/>
<path d="M5785 6623 c35 -19 155 -30 180 -16 13 8 -4 13 -72 22 -49 6 -100 11
-114 11 -23 -1 -23 -1 6 -17z"/>
<path d="M4504 6592 c-67 -10 -94 -155 -49 -257 13 -28 13 -25 14 54 1 75 4
91 32 139 33 60 34 68 3 64z"/>
<path d="M4612 6306 c-71 -77 -80 -164 -23 -225 26 -28 35 -31 88 -31 32 0 73
-4 91 -9 27 -8 32 -7 32 8 0 10 -11 28 -24 40 -21 20 -31 22 -70 17 -40 -6
-49 -4 -71 18 -14 14 -25 34 -25 46 0 25 38 141 51 155 5 5 9 13 9 17 0 18
-20 6 -58 -36z"/>
<path d="M6342 6260 c-62 -56 -75 -133 -29 -165 31 -22 37 -19 26 17 -10 36 2
91 31 144 24 42 15 43 -28 4z"/>
<path d="M7020 6265 c0 -4 7 -19 15 -35 8 -16 16 -45 17 -64 3 -38 6 -40 25
-28 11 7 16 25 14 54 -2 29 -71 100 -71 73z"/>
<path d="M6920 6124 c-37 -16 -80 -52 -80 -66 0 -8 15 -6 93 14 38 9 77 39 77
58 0 15 -50 11 -90 -6z"/>
<path d="M6423 6114 c-9 -24 19 -45 83 -60 66 -15 104 -18 104 -6 0 4 -26 24
-57 45 -61 40 -119 50 -130 21z"/>
<path d="M6021 5982 c-46 -42 -72 -73 -67 -80 5 -8 2 -10 -8 -6 -21 8 -56 -65
-63 -130 -6 -59 9 -166 35 -251 l18 -60 0 175 c-1 148 2 180 16 207 19 35 108
154 141 191 43 47 -1 19 -72 -46z"/>
<path d="M7193 5999 c75 -216 80 -260 52 -479 -9 -72 7 -52 40 53 41 128 30
226 -40 355 -36 66 -64 104 -52 71z"/>
<path d="M6416 5723 c-39 -7 -118 -20 -175 -29 -138 -21 -151 -26 -151 -63 0
-15 7 -34 15 -41 12 -10 20 -7 46 14 17 14 37 26 46 26 13 0 13 3 2 18 -12 16
-12 16 4 1 16 -14 28 -14 135 3 173 28 479 32 598 9 52 -10 99 -25 109 -34 27
-28 75 4 75 50 0 30 -10 34 -56 22 -34 -9 -49 -7 -95 12 -50 20 -71 22 -268
23 -130 1 -241 -4 -285 -11z"/>
<path d="M7043 5558 c-6 -14 -25 -42 -43 -61 -25 -29 -43 -38 -98 -51 -274
-62 -427 -49 -632 54 -56 28 -104 50 -106 48 -1 -2 9 -19 23 -37 46 -58 139
-119 224 -146 44 -14 83 -25 87 -25 3 0 -12 19 -33 43 l-40 42 45 -43 c38 -34
48 -40 59 -30 8 7 11 8 8 2 -23 -41 353 -6 444 42 55 28 85 91 77 160 l-3 29
-12 -27z"/>
<path d="M5090 5555 c0 -14 125 -261 170 -335 68 -114 180 -259 240 -313 27
-24 79 -60 117 -80 66 -34 237 -91 256 -84 5 1 -53 50 -130 107 -320 243 -432
355 -556 563 -81 134 -97 157 -97 142z"/>
<path d="M6030 4683 c0 -8 140 -93 217 -132 142 -71 237 -94 388 -95 152 0
217 14 344 76 90 45 93 57 9 38 -81 -18 -320 -24 -438 -11 -136 16 -308 54
-426 95 -52 18 -94 31 -94 29z"/>
<path d="M5900 4555 c0 -7 161 -110 215 -138 71 -35 176 -65 274 -77 94 -11
115 -7 50 10 -135 34 -316 103 -451 171 -78 39 -88 43 -88 34z"/>
<path d="M10595 3853 c-61 -177 -105 -286 -162 -398 -49 -97 -69 -125 -89
-125 -17 0 -36 67 -44 160 -3 41 -9 68 -12 60 -19 -48 -63 -352 -54 -375 3 -8
17 -15 32 -15 69 0 211 231 293 477 36 110 94 343 87 350 -2 2 -25 -58 -51
-134z"/>
<path d="M11200 4463 c0 -4 33 -32 73 -62 73 -55 221 -131 291 -150 l39 -10
-24 25 c-67 72 -212 161 -299 184 -25 6 -53 13 -62 16 -10 3 -18 2 -18 -3z"/>
<path d="M8360 3809 c0 -4 24 -46 53 -95 29 -49 93 -163 142 -254 48 -91 118
-219 154 -285 36 -66 77 -141 91 -167 13 -26 26 -45 28 -43 5 5 -161 325 -266
515 -41 74 -90 164 -109 200 -31 59 -92 144 -93 129z"/>
<path d="M9041 3714 c2 -6 37 -57 77 -115 40 -57 135 -194 210 -304 253 -369
274 -399 417 -590 156 -207 268 -342 309 -368 14 -10 26 -15 26 -12 0 9 -78
200 -115 279 -65 142 -176 321 -280 451 -78 97 -289 326 -377 409 -40 39 -118
113 -172 165 -54 53 -97 91 -95 85z"/>
<path d="M4302 2789 c192 -294 397 -652 593 -1034 48 -93 88 -172 90 -174 14
-14 -151 514 -196 625 -42 107 -73 165 -131 247 -95 135 -223 276 -371 410
l-79 71 94 -145z"/>
<path d="M4565 2903 c6 -6 82 -59 170 -118 549 -371 1051 -744 1360 -1010 108
-93 115 -95 49 -20 -237 270 -610 574 -1011 825 -202 126 -597 350 -568 323z"/>
</g>
</svg>
